<svg width="200" height="200" viewBox="0 0 200 200" fill="none" xmlns="http://www.w3.org/2000/svg">
  <!-- Background circle -->
  <circle cx="100" cy="100" r="95" fill="#66BB6A" stroke="#2E7D32" stroke-width="3"/>

  <!-- Recycling arrows in circle formation -->
  <g transform="translate(100, 100)">
    <!-- Arrow 1 (top) -->
    <path d="M-5 -45 L5 -45 L5 -20 L15 -20 L0 -5 L-15 -20 L-5 -20 Z" fill="white"/>

    <!-- Arrow 2 (bottom right) -->
    <g transform="rotate(120)">
      <path d="M-5 -45 L5 -45 L5 -20 L15 -20 L0 -5 L-15 -20 L-5 -20 Z" fill="white"/>
    </g>

    <!-- Arrow 3 (bottom left) -->
    <g transform="rotate(240)">
      <path d="M-5 -45 L5 -45 L5 -20 L15 -20 L0 -5 L-15 -20 L-5 -20 Z" fill="white"/>
    </g>

    <!-- Inner circle -->
    <circle cx="0" cy="0" r="15" fill="#66BB6A"/>
  </g>

  <!-- Leaf decoration -->
  <g transform="translate(140, 60)">
    <path d="M0 20 Q10 5 20 20 Q10 15 0 20 Z" fill="#81C784"/>
    <line x1="10" y1="7" x2="10" y2="20" stroke="#4CAF50" stroke-width="2"/>
  </g>

  <!-- Text -->
  <text x="100" y="165" fill="white" font-family="Arial, sans-serif" font-size="16" font-weight="bold" text-anchor="middle">BIODEGRADABLE</text>
  <text x="100" y="183" fill="white" font-family="Arial, sans-serif" font-size="11" text-anchor="middle">100% Compostable</text>
</svg>
