<svg width="200" height="200" viewBox="0 0 200 200" fill="none" xmlns="http://www.w3.org/2000/svg">
  <circle cx="100" cy="100" r="95" fill="#4CAF50" stroke="#2E7D32" stroke-width="3"/>

  <!-- Shield shape -->
  <path d="M100 40 L130 50 L130 90 Q130 110 100 130 Q70 110 70 90 L70 50 Z" fill="white" stroke="#2E7D32" stroke-width="2"/>

  <!-- Checkmark -->
  <path d="M85 85 L95 95 L115 70" stroke="#4CAF50" stroke-width="5" stroke-linecap="round" stroke-linejoin="round" fill="none"/>

  <!-- Pet paw -->
  <g transform="translate(60, 140)">
    <circle cx="10" cy="10" r="4" fill="white"/>
    <circle cx="3" cy="4" r="3" fill="white"/>
    <circle cx="17" cy="4" r="3" fill="white"/>
    <ellipse cx="10" cy="17" rx="5" ry="6" fill="white"/>
  </g>

  <!-- Child icon -->
  <g transform="translate(120, 140)">
    <circle cx="10" cy="5" r="4" fill="white"/>
    <path d="M10 10 L10 18 M6 13 L14 13 M10 18 L7 24 M10 18 L13 24" stroke="white" stroke-width="2" stroke-linecap="round"/>
  </g>

  <!-- Text -->
  <text x="100" y="170" fill="white" font-family="Arial, sans-serif" font-size="14" font-weight="bold" text-anchor="middle">NON-TOXIC</text>
  <text x="100" y="187" fill="white" font-family="Arial, sans-serif" font-size="10" text-anchor="middle">Safe for Pets & Children</text>
</svg>
